<?xml version="1.0" encoding="UTF-8" standalone="no"?>
<!DOCTYPE svg PUBLIC "-//W3C//DTD SVG 1.1//EN" "http://www.w3.org/Graphics/SVG/1.1/DTD/svg11.dtd">
<svg width="100%" height="100%" viewBox="0 0 76 76" version="1.1" xmlns="http://www.w3.org/2000/svg" xmlns:xlink="http://www.w3.org/1999/xlink" xml:space="preserve" xmlns:serif="http://www.serif.com/" style="fill-rule:evenodd;clip-rule:evenodd;stroke-linejoin:round;stroke-miterlimit:2;">
    <g id="Group" transform="matrix(2.30981,-5.00319e-32,6.45243e-32,-2.30981,-3.62954,162.678)">
        <g transform="matrix(1.04142,-5.2471e-48,3.42114e-49,1.04142,-0.746473,-2.23575)">
            <path d="M5.513,63.634C10.848,70.54 20.76,71.808 27.667,66.484C34.571,61.153 35.859,51.239 30.535,44.33C25.206,37.412 15.274,36.144 8.367,41.478C1.467,46.813 0.189,56.731 5.513,63.634Z" style="fill:rgb(181,233,100);"/>
        </g>
        <g id="Group_1">
            <path d="M6.299,43.758C6.401,43.602 7.301,42.168 7.317,42.158C8.257,41.64 10.654,39.696 12.264,39.756C12.648,40.742 12.836,41.51 12.41,42.74C11.758,43.526 7.343,43.51 6.299,43.758Z" style="fill:rgb(51,51,51);"/>
            <path d="M8.511,51.289C8.159,52.451 7.677,53.513 7.223,54.595C7.045,54.763 7.007,54.923 7.109,55.093C7.083,55.663 7.345,55.861 7.787,55.831C8.219,56.059 8.499,55.839 8.755,55.555C9.131,55.097 9.563,54.725 10.066,54.459C9.874,54.777 9.858,54.993 10.064,55.079C9.926,55.579 9.765,55.991 9.511,56.079L9.281,56.099C9.073,56.215 8.971,56.097 9.011,55.653C8.705,56.173 8.837,56.421 9.179,56.543C9.285,57.037 9.473,57.133 9.687,57.069C9.988,57.191 10.21,57.051 10.384,56.753C10.71,56.667 10.852,56.417 10.896,56.087C10.792,56.297 10.66,56.435 10.426,56.327C10.354,55.999 10.37,55.635 10.424,55.255C10.49,55.063 10.634,55.067 10.806,55.163C10.996,55.273 11.022,54.993 10.97,54.513C10.986,54.281 11.088,54.093 11.276,53.945C11.358,53.567 11.166,53.381 10.932,53.219C10.88,52.907 10.748,52.645 10.5,52.463C10.27,52.451 10.108,52.543 10.002,52.723C9.844,53.071 9.607,53.303 9.315,53.455C9.275,52.931 9.403,52.457 9.89,52.155L8.511,51.289Z" style="fill:rgb(51,51,51);"/>
            <path d="M13.26,43.922C13.816,43.662 14.318,43.654 14.744,43.986C15.234,43.876 15.624,44.002 15.998,44.16C16.084,43.984 16.256,43.876 16.522,43.832C18.842,43.48 20.708,42.458 23.16,42.304C23.396,41.984 23.63,41.96 23.866,42.158C24.854,42.416 25,42.986 24.83,43.67L24.996,43.9C25.372,43.638 25.576,43.79 25.718,44.1C26.082,44.314 26.489,44.432 26.937,44.47C27.521,44.372 27.595,44.028 27.351,43.536C27.725,43.6 27.893,43.834 27.855,44.244C28.279,44.408 28.415,44.65 28.377,44.942C28.245,45.438 27.935,45.51 27.529,45.37C27.413,45.853 27.083,45.973 26.621,45.863C27.019,45.762 27.191,45.564 26.849,45.15C26.465,44.918 26.048,44.736 25.526,44.698C25.25,44.906 24.982,44.924 24.734,44.602C24.544,44.82 24.348,44.938 24.13,44.584C23.976,44.72 23.814,44.802 23.62,44.626C23.476,44.722 23.33,44.814 23.118,44.75C22.842,44.832 22.694,44.752 22.68,44.51C22.974,44.364 23.124,44.208 23.108,44.05C20.7,44.202 18.788,45.09 16.34,45.186C16.212,45.432 16.012,45.58 15.722,45.59C15.646,45.845 15.458,45.955 15.21,45.997C15.004,46.171 15.04,46.419 15.13,46.685L14.116,46.145L13.15,44.456L13.26,43.922Z" style="fill:rgb(51,51,51);"/>
            <path d="M14.556,55.465C14.608,55.691 14.69,55.909 14.872,56.101L14.916,56.875C14.868,57.093 14.872,57.267 15.016,57.305C14.89,57.645 14.9,57.895 15.05,58.047C14.82,58.581 14.65,59.065 14.946,59.191C14.742,59.663 14.6,60.101 14.844,60.293C14.7,60.723 14.592,61.127 14.83,61.319C14.682,61.945 14.578,62.538 14.876,62.73C14.704,63.162 14.556,63.598 14.86,64.044C14.646,64.506 14.494,64.948 14.77,65.272C14.46,65.872 14.484,66.256 14.726,66.51C14.442,66.82 14.378,67.194 14.506,67.636C14.392,67.964 14.344,68.272 14.446,68.536C14.258,68.802 14.17,69.042 14.368,69.23C14.05,69.548 14.73,69.618 14.702,69.31C14.792,69.14 14.836,68.952 14.772,68.706C14.976,68.408 14.99,68.076 14.926,67.726C15.11,67.466 15.16,67.082 15.112,66.596C15.3,66.296 15.404,65.934 15.254,65.37C15.45,65.126 15.442,64.682 15.332,64.132C15.634,63.746 15.602,63.28 15.37,62.774C15.66,62.618 15.562,61.963 15.46,61.309C15.834,61.121 15.506,60.209 15.558,59.225C15.856,59.227 15.63,58.623 15.646,58.063C15.9,57.977 15.7,57.621 15.602,57.161C15.906,57.189 15.738,56.883 15.502,56.443C15.634,56.495 15.352,56.087 15.314,55.353L14.756,55.013L14.556,55.465Z" style="fill:rgb(51,51,51);"/>
            <path d="M16.298,54.753L16.532,54.869C16.688,55.377 16.944,55.815 17.286,56.191C17.404,56.417 17.534,56.561 17.682,56.561C17.902,56.913 18.156,57.143 18.446,57.245C18.926,57.803 19.372,58.071 19.806,58.231C20.212,58.619 20.604,58.991 20.724,58.857C21.144,59.365 21.58,59.471 21.878,59.435C22.212,59.879 22.512,59.993 22.802,60.005C23.264,60.489 23.572,60.601 23.784,60.505C24.15,60.947 24.42,60.953 24.692,60.971C24.988,61.317 25.274,61.459 25.548,61.361C25.748,61.597 25.948,61.737 26.15,61.645C26.353,61.923 26.563,61.981 26.771,61.959C26.949,62.163 27.137,62.31 27.299,62.21C27.573,62.544 27.761,62.546 27.951,62.524C28.073,62.674 28.201,62.744 28.333,62.726C28.481,62.898 28.609,62.912 28.739,62.902C28.833,63.034 28.945,63.096 29.073,63.038C29.311,63.216 29.537,63.294 29.751,63.14C29.901,63.046 29.891,62.948 29.815,62.844C29.613,62.724 29.389,62.682 29.153,62.686C29.045,62.606 28.929,62.56 28.781,62.57C28.673,62.462 28.559,62.368 28.381,62.312C28.251,62.216 28.103,62.141 27.917,62.107C27.833,61.959 27.673,61.877 27.443,61.843C27.315,61.697 27.123,61.621 26.875,61.593C26.747,61.403 26.577,61.285 26.317,61.323C26.212,61.099 25.994,60.983 25.666,60.969C25.488,60.743 25.236,60.593 24.888,60.555C24.644,60.327 24.386,60.127 23.968,60.079C23.774,59.779 23.48,59.629 23.092,59.597C22.822,59.353 22.542,59.127 22.18,59.101C21.956,58.757 21.594,58.527 21.1,58.407C20.882,58.125 20.592,57.941 20.232,57.839C20.116,57.573 19.95,57.325 19.38,57.193C19.32,57.001 19.118,56.899 18.832,56.849C18.714,56.609 18.512,56.433 18.262,56.319C18.13,56.259 17.934,56.055 17.712,55.775C17.65,55.571 17.518,55.415 17.32,55.303C17.236,55.017 17.076,54.785 16.882,54.573C16.926,54.471 16.97,54.373 16.74,54.161L16.404,54.143L16.298,54.753Z" style="fill:rgb(51,51,51);"/>
            <path d="M8.207,41.548C9.611,41.702 10.87,42.016 12.178,42.274C12.92,42.956 13.562,43.706 14.088,44.534C14.772,45.58 15.074,46.415 15.4,47.263C15.58,47.929 15.408,48.243 15.186,48.509C14.596,49.035 14.008,49.533 13.426,49.983C13.008,50.939 12.438,51.671 11.84,52.349C11.432,52.801 10.532,53.469 10.216,52.963L9.753,52.317C9.265,52.059 8.871,51.733 8.553,51.353C8.023,51.207 7.567,50.881 7.181,50.389C6.425,50.147 5.771,49.851 5.351,49.443L5.199,49.115L4.785,49.035C4.337,48.595 3.881,48.165 3.463,47.675C3.407,47.611 4.171,46.033 5.297,44.584C6.529,43.002 8.141,41.54 8.207,41.548Z" style="fill:rgb(51,51,51);"/>
            <path d="M10.678,53.065C10.912,53.407 11.204,53.703 11.666,53.851C11.342,54.499 11.476,55.005 12.026,55.375C12.702,55.863 13.268,55.693 13.802,55.307C14.446,55.533 15.106,55.493 15.764,55.381L16.154,54.963C16.87,54.195 17.118,53.295 17.452,52.423C17.842,51.861 17.882,51.329 17.742,50.809C17.908,50.557 18.022,50.265 17.942,49.771L18.156,49.493C18.066,49.191 17.814,48.997 17.544,48.817C17.37,48.601 17.158,48.457 16.864,48.487C16.636,48.377 16.406,48.301 16.16,48.405C16.148,48.249 15.892,48.203 15.282,48.327L12.316,49.083L10.678,53.065Z" style="fill:rgb(51,51,51);"/>
        </g>
        <g transform="matrix(0.716667,-1.55235e-32,1.63244e-32,-0.584372,-6.36493,74.8367)">
            <path d="M43.143,46.452L45.099,46.452L45.966,38.273L51.611,38.273L52.433,30.65C52.544,29.583 52.078,28.85 50.766,28.85L46.943,28.85L47.366,24.938L45.41,24.938L44.988,28.85L39.631,28.85L38.631,38.273L44.01,38.273L43.143,46.452ZM40.765,36.362L41.343,30.761L44.788,30.761L44.21,36.362L40.765,36.362ZM46.166,36.362L46.743,30.761L50.5,30.761L49.877,36.362L46.166,36.362Z" style="fill:rgb(51,51,51);fill-rule:nonzero;stroke:rgb(51,51,51);stroke-width:0.64px;"/>
        </g>
        <g transform="matrix(1.04142,-1.76137e-31,-2.013e-31,1.04142,-0.746473,-2.23575)">
            <path d="M5.513,63.634C10.848,70.54 20.76,71.808 27.667,66.484C34.571,61.153 35.859,51.239 30.535,44.33C25.206,37.412 15.274,36.144 8.367,41.478C1.467,46.813 0.189,56.731 5.513,63.634ZM6.829,62.618C2.066,56.441 3.21,47.567 9.384,42.794C15.564,38.022 24.45,39.155 29.218,45.345C33.981,51.527 32.828,60.397 26.651,65.167C20.471,69.931 11.603,68.797 6.829,62.618Z" style="fill:rgb(51,51,51);"/>
        </g>
        <g transform="matrix(0.835246,-1.8092e-32,2.33325e-32,-0.835246,-11.6725,62.2228)">
            <path d="M20.557,27.622C24.683,27.622 26.632,24.45 27.254,19.432C27.938,14.208 26.901,10.869 22.651,10.869L19.686,10.869L17.323,27.622L20.557,27.622ZM22.423,12.777C24.828,12.818 25.678,14.871 25.015,19.495C24.455,23.496 23.169,25.715 20.806,25.715L19.728,25.715L21.552,12.756L22.423,12.777Z" style="fill:white;fill-rule:nonzero;"/>
            <path d="M20.557,28.659L17.323,28.659C17.022,28.659 16.737,28.529 16.54,28.302C16.343,28.075 16.254,27.774 16.296,27.477L18.66,10.725C18.732,10.213 19.17,9.833 19.686,9.833L22.651,9.833C24.197,9.833 25.384,10.226 26.277,10.907C27.131,11.557 27.731,12.479 28.087,13.655C28.551,15.188 28.592,17.196 28.282,19.564C27.58,25.223 25.211,28.659 20.557,28.659ZM20.557,27.622C24.683,27.622 26.632,24.45 27.254,19.432C27.938,14.208 26.901,10.869 22.651,10.869L19.686,10.869L17.323,27.622L20.557,27.622ZM22.423,12.777C24.828,12.818 25.678,14.871 25.015,19.495C24.455,23.496 23.169,25.715 20.806,25.715L19.728,25.715L21.552,12.756L22.423,12.777ZM20.921,24.675C21.683,24.638 22.265,24.235 22.718,23.539C23.341,22.583 23.734,21.165 23.988,19.351L23.989,19.347C24.232,17.65 24.27,16.331 24.067,15.356C23.955,14.821 23.781,14.412 23.484,14.151C23.222,13.92 22.872,13.827 22.45,13.815L20.921,24.675Z"/>
            <path d="M31.463,27.829C34.117,27.829 35.609,25.777 36.19,21.319C36.77,16.82 35.817,14.767 33.101,14.767C30.468,14.767 28.975,16.82 28.394,21.319C27.814,25.777 28.767,27.829 31.463,27.829ZM31.608,25.963C30.364,25.963 30.011,24.512 30.468,21.319C30.924,18.105 31.712,16.633 32.935,16.633C34.2,16.633 34.573,18.105 34.117,21.319C33.66,24.512 32.873,25.963 31.608,25.963Z" style="fill:white;fill-rule:nonzero;"/>
            <path d="M31.463,28.866C30.393,28.866 29.538,28.594 28.876,28.092C28.248,27.617 27.777,26.926 27.497,25.985C27.153,24.832 27.098,23.242 27.366,21.186C28.043,15.94 30.031,13.731 33.101,13.731C34.177,13.731 35.035,14.003 35.7,14.505C36.332,14.981 36.805,15.674 37.086,16.62C37.431,17.778 37.486,19.378 37.218,21.452L37.218,21.453C36.541,26.653 34.558,28.866 31.463,28.866ZM31.463,27.829C34.117,27.829 35.609,25.777 36.19,21.319C36.77,16.82 35.817,14.767 33.101,14.767C30.468,14.767 28.975,16.82 28.394,21.319C27.814,25.777 28.767,27.829 31.463,27.829ZM31.608,25.963C30.364,25.963 30.011,24.512 30.468,21.319C30.924,18.105 31.712,16.633 32.935,16.633C34.2,16.633 34.573,18.105 34.117,21.319C33.66,24.512 32.873,25.963 31.608,25.963ZM31.608,24.927C31.894,24.927 32.067,24.69 32.254,24.345C32.624,23.66 32.885,22.61 33.09,21.173C33.293,19.747 33.338,18.708 33.166,18.025C33.117,17.831 33.094,17.67 32.935,17.67C32.664,17.67 32.51,17.914 32.33,18.256C31.962,18.951 31.7,20.014 31.494,21.465L31.494,21.466C31.291,22.884 31.241,23.915 31.407,24.592C31.451,24.772 31.461,24.927 31.608,24.927Z"/>
            <path d="M44.753,24.325L42.928,24.056C42.555,25.3 41.809,25.963 41.021,25.963C39.652,25.963 39.341,24.512 39.798,21.319C40.254,18.105 41.042,16.633 42.265,16.633C43.239,16.633 43.571,17.463 43.654,18.375L45.582,18.064C45.416,16.115 44.4,14.767 42.431,14.767C39.798,14.767 38.305,16.82 37.724,21.319C37.144,25.777 38.097,27.829 40.793,27.829C42.804,27.829 44.193,26.482 44.753,24.325Z" style="fill:white;fill-rule:nonzero;"/>
            <path d="M45.756,24.586C45.062,27.259 43.286,28.866 40.793,28.866C39.723,28.866 38.868,28.594 38.206,28.092C37.578,27.617 37.107,26.926 36.827,25.985C36.483,24.832 36.428,23.242 36.696,21.186C37.373,15.94 39.361,13.731 42.431,13.731C43.484,13.731 44.328,14.038 44.983,14.55C45.921,15.286 46.488,16.481 46.615,17.976C46.661,18.516 46.283,19.001 45.747,19.087L43.819,19.398C43.535,19.444 43.245,19.37 43.018,19.194C42.791,19.018 42.648,18.755 42.622,18.469C42.604,18.279 42.575,18.093 42.519,17.927C42.476,17.799 42.422,17.67 42.265,17.67C41.994,17.67 41.84,17.914 41.66,18.256C41.293,18.951 41.03,20.014 40.824,21.465L40.824,21.466C40.657,22.633 40.593,23.545 40.667,24.219C40.713,24.629 40.717,24.927 41.021,24.927C41.162,24.927 41.29,24.847 41.409,24.732C41.634,24.513 41.809,24.181 41.935,23.758C42.083,23.265 42.571,22.955 43.08,23.03L44.904,23.3C45.195,23.343 45.455,23.508 45.617,23.753C45.78,23.998 45.83,24.301 45.756,24.586ZM44.753,24.325L42.928,24.056C42.555,25.3 41.809,25.963 41.021,25.963C39.652,25.963 39.341,24.512 39.798,21.319C40.254,18.105 41.042,16.633 42.265,16.633C43.239,16.633 43.571,17.463 43.654,18.375L45.582,18.064C45.416,16.115 44.4,14.767 42.431,14.767C39.798,14.767 38.305,16.82 37.724,21.319C37.144,25.777 38.097,27.829 40.793,27.829C42.804,27.829 44.193,26.482 44.753,24.325Z"/>
            <path d="M47.386,24.284L45.499,24.367C45.499,26.73 47.075,27.829 48.796,27.829C50.434,27.829 52.113,26.855 52.445,24.802C53.067,21.112 48.568,19.909 48.962,17.711C49.128,16.82 49.667,16.55 50.247,16.55C50.952,16.55 51.574,17.069 51.533,18.251L53.316,18.251C53.502,15.804 51.906,14.767 50.247,14.767C48.775,14.767 47.303,15.514 46.93,17.276C46.1,21.05 50.848,21.92 50.351,24.678C50.206,25.611 49.584,25.984 48.962,25.984C48.153,25.984 47.448,25.383 47.386,24.284Z" style="fill:white;fill-rule:nonzero;"/>
            <path d="M48.421,24.225C48.445,24.653 48.647,24.947 48.962,24.947C49.145,24.947 49.284,24.794 49.326,24.519C49.328,24.51 49.329,24.502 49.331,24.494C49.421,23.99 49.177,23.607 48.871,23.231C48.555,22.844 48.163,22.476 47.778,22.086C46.528,20.82 45.41,19.367 45.917,17.057C46.408,14.745 48.314,13.731 50.247,13.731C51.348,13.731 52.421,14.097 53.195,14.847C53.962,15.59 54.472,16.72 54.349,18.329C54.308,18.87 53.858,19.287 53.316,19.287L51.533,19.287C51.251,19.287 50.982,19.173 50.787,18.971C50.591,18.768 50.487,18.495 50.497,18.214C50.51,17.84 50.47,17.587 50.247,17.587C50.191,17.587 50.132,17.578 50.089,17.612C50.022,17.665 50.006,17.766 49.982,17.895C49.935,18.16 50.087,18.377 50.259,18.609C50.592,19.057 51.069,19.494 51.536,19.978C52.743,21.232 53.843,22.741 53.468,24.972C53.04,27.604 50.897,28.866 48.796,28.866C47.667,28.866 46.593,28.489 45.794,27.741C45.006,27.003 44.463,25.896 44.463,24.367C44.463,23.812 44.899,23.356 45.454,23.331L47.34,23.248C47.907,23.223 48.389,23.659 48.421,24.225ZM47.386,24.284L45.499,24.367C45.499,26.73 47.075,27.829 48.796,27.829C50.434,27.829 52.113,26.855 52.445,24.802C53.067,21.112 48.568,19.909 48.962,17.711C49.128,16.82 49.667,16.55 50.247,16.55C50.952,16.55 51.574,17.069 51.533,18.251L53.316,18.251C53.502,15.804 51.906,14.767 50.247,14.767C48.775,14.767 47.303,15.514 46.93,17.276C46.1,21.05 50.848,21.92 50.351,24.678C50.206,25.611 49.584,25.984 48.962,25.984C48.153,25.984 47.448,25.383 47.386,24.284Z"/>
        </g>
    </g>
</svg>
